<svg width="512" height="512" viewBox="0 0 512 512" xmlns="http://www.w3.org/2000/svg">
  <!-- GitAscii favicon — Logo Tile (signal-lime) with Octocat-inspired silhouette rendered as ASCII-density blocks (░▒▓█) -->
  <rect x="0" y="0" width="512" height="512" rx="32" ry="32" fill="#c5ff4a"/>
  <g>
    <rect x="189.94" y="156.14" width="13.85" height="13.85" fill="#000000" fill-opacity="0.31"/>
<rect x="308.21" y="156.14" width="13.85" height="13.85" fill="#000000" fill-opacity="0.31"/>
<rect x="173.04" y="173.04" width="13.85" height="13.85" fill="#000000" fill-opacity="0.55"/>
<rect x="189.94" y="173.04" width="13.85" height="13.85" fill="#000000" fill-opacity="0.78"/>
<rect x="223.73" y="173.04" width="13.85" height="13.85" fill="#000000" fill-opacity="0.31"/>
<rect x="240.62" y="173.04" width="13.85" height="13.85" fill="#000000" fill-opacity="0.55"/>
<rect x="257.52" y="173.04" width="13.85" height="13.85" fill="#000000" fill-opacity="0.55"/>
<rect x="274.42" y="173.04" width="13.85" height="13.85" fill="#000000" fill-opacity="0.31"/>
<rect x="308.21" y="173.04" width="13.85" height="13.85" fill="#000000" fill-opacity="0.78"/>
<rect x="325.10" y="173.04" width="13.85" height="13.85" fill="#000000" fill-opacity="0.55"/>
<rect x="173.04" y="189.94" width="13.85" height="13.85" fill="#000000" fill-opacity="0.78"/>
<rect x="189.94" y="189.94" width="13.85" height="13.85" fill="#000000" fill-opacity="1.00"/>
<rect x="206.83" y="189.94" width="13.85" height="13.85" fill="#000000" fill-opacity="1.00"/>
<rect x="223.73" y="189.94" width="13.85" height="13.85" fill="#000000" fill-opacity="1.00"/>
<rect x="240.62" y="189.94" width="13.85" height="13.85" fill="#000000" fill-opacity="1.00"/>
<rect x="257.52" y="189.94" width="13.85" height="13.85" fill="#000000" fill-opacity="1.00"/>
<rect x="274.42" y="189.94" width="13.85" height="13.85" fill="#000000" fill-opacity="1.00"/>
<rect x="291.31" y="189.94" width="13.85" height="13.85" fill="#000000" fill-opacity="1.00"/>
<rect x="308.21" y="189.94" width="13.85" height="13.85" fill="#000000" fill-opacity="1.00"/>
<rect x="325.10" y="189.94" width="13.85" height="13.85" fill="#000000" fill-opacity="0.78"/>
<rect x="173.04" y="206.83" width="13.85" height="13.85" fill="#000000" fill-opacity="1.00"/>
<rect x="189.94" y="206.83" width="13.85" height="13.85" fill="#000000" fill-opacity="1.00"/>
<rect x="206.83" y="206.83" width="13.85" height="13.85" fill="#000000" fill-opacity="1.00"/>
<rect x="223.73" y="206.83" width="13.85" height="13.85" fill="#000000" fill-opacity="1.00"/>
<rect x="240.62" y="206.83" width="13.85" height="13.85" fill="#000000" fill-opacity="1.00"/>
<rect x="257.52" y="206.83" width="13.85" height="13.85" fill="#000000" fill-opacity="1.00"/>
<rect x="274.42" y="206.83" width="13.85" height="13.85" fill="#000000" fill-opacity="1.00"/>
<rect x="291.31" y="206.83" width="13.85" height="13.85" fill="#000000" fill-opacity="1.00"/>
<rect x="308.21" y="206.83" width="13.85" height="13.85" fill="#000000" fill-opacity="1.00"/>
<rect x="325.10" y="206.83" width="13.85" height="13.85" fill="#000000" fill-opacity="1.00"/>
<rect x="156.14" y="223.73" width="13.85" height="13.85" fill="#000000" fill-opacity="0.31"/>
<rect x="173.04" y="223.73" width="13.85" height="13.85" fill="#000000" fill-opacity="1.00"/>
<rect x="189.94" y="223.73" width="13.85" height="13.85" fill="#000000" fill-opacity="1.00"/>
<rect x="206.83" y="223.73" width="13.85" height="13.85" fill="#000000" fill-opacity="1.00"/>
<rect x="223.73" y="223.73" width="13.85" height="13.85" fill="#000000" fill-opacity="1.00"/>
<rect x="240.62" y="223.73" width="13.85" height="13.85" fill="#000000" fill-opacity="1.00"/>
<rect x="257.52" y="223.73" width="13.85" height="13.85" fill="#000000" fill-opacity="1.00"/>
<rect x="274.42" y="223.73" width="13.85" height="13.85" fill="#000000" fill-opacity="1.00"/>
<rect x="291.31" y="223.73" width="13.85" height="13.85" fill="#000000" fill-opacity="1.00"/>
<rect x="308.21" y="223.73" width="13.85" height="13.85" fill="#000000" fill-opacity="1.00"/>
<rect x="325.10" y="223.73" width="13.85" height="13.85" fill="#000000" fill-opacity="1.00"/>
<rect x="342.00" y="223.73" width="13.85" height="13.85" fill="#000000" fill-opacity="0.31"/>
<rect x="156.14" y="240.62" width="13.85" height="13.85" fill="#000000" fill-opacity="0.78"/>
<rect x="173.04" y="240.62" width="13.85" height="13.85" fill="#000000" fill-opacity="1.00"/>
<rect x="189.94" y="240.62" width="13.85" height="13.85" fill="#000000" fill-opacity="1.00"/>
<rect x="206.83" y="240.62" width="13.85" height="13.85" fill="#000000" fill-opacity="1.00"/>
<rect x="223.73" y="240.62" width="13.85" height="13.85" fill="#000000" fill-opacity="1.00"/>
<rect x="240.62" y="240.62" width="13.85" height="13.85" fill="#000000" fill-opacity="1.00"/>
<rect x="257.52" y="240.62" width="13.85" height="13.85" fill="#000000" fill-opacity="1.00"/>
<rect x="274.42" y="240.62" width="13.85" height="13.85" fill="#000000" fill-opacity="1.00"/>
<rect x="291.31" y="240.62" width="13.85" height="13.85" fill="#000000" fill-opacity="1.00"/>
<rect x="308.21" y="240.62" width="13.85" height="13.85" fill="#000000" fill-opacity="1.00"/>
<rect x="325.10" y="240.62" width="13.85" height="13.85" fill="#000000" fill-opacity="1.00"/>
<rect x="342.00" y="240.62" width="13.85" height="13.85" fill="#000000" fill-opacity="0.78"/>
<rect x="156.14" y="257.52" width="13.85" height="13.85" fill="#000000" fill-opacity="1.00"/>
<rect x="173.04" y="257.52" width="13.85" height="13.85" fill="#000000" fill-opacity="1.00"/>
<rect x="189.94" y="257.52" width="13.85" height="13.85" fill="#000000" fill-opacity="1.00"/>
<rect x="206.83" y="257.52" width="13.85" height="13.85" fill="#000000" fill-opacity="1.00"/>
<rect x="223.73" y="257.52" width="13.85" height="13.85" fill="#000000" fill-opacity="1.00"/>
<rect x="240.62" y="257.52" width="13.85" height="13.85" fill="#000000" fill-opacity="1.00"/>
<rect x="257.52" y="257.52" width="13.85" height="13.85" fill="#000000" fill-opacity="1.00"/>
<rect x="274.42" y="257.52" width="13.85" height="13.85" fill="#000000" fill-opacity="1.00"/>
<rect x="291.31" y="257.52" width="13.85" height="13.85" fill="#000000" fill-opacity="1.00"/>
<rect x="308.21" y="257.52" width="13.85" height="13.85" fill="#000000" fill-opacity="1.00"/>
<rect x="325.10" y="257.52" width="13.85" height="13.85" fill="#000000" fill-opacity="1.00"/>
<rect x="342.00" y="257.52" width="13.85" height="13.85" fill="#000000" fill-opacity="1.00"/>
<rect x="156.14" y="274.42" width="13.85" height="13.85" fill="#000000" fill-opacity="1.00"/>
<rect x="173.04" y="274.42" width="13.85" height="13.85" fill="#000000" fill-opacity="1.00"/>
<rect x="189.94" y="274.42" width="13.85" height="13.85" fill="#000000" fill-opacity="1.00"/>
<rect x="206.83" y="274.42" width="13.85" height="13.85" fill="#000000" fill-opacity="1.00"/>
<rect x="223.73" y="274.42" width="13.85" height="13.85" fill="#000000" fill-opacity="1.00"/>
<rect x="240.62" y="274.42" width="13.85" height="13.85" fill="#000000" fill-opacity="1.00"/>
<rect x="257.52" y="274.42" width="13.85" height="13.85" fill="#000000" fill-opacity="1.00"/>
<rect x="274.42" y="274.42" width="13.85" height="13.85" fill="#000000" fill-opacity="1.00"/>
<rect x="291.31" y="274.42" width="13.85" height="13.85" fill="#000000" fill-opacity="1.00"/>
<rect x="308.21" y="274.42" width="13.85" height="13.85" fill="#000000" fill-opacity="1.00"/>
<rect x="325.10" y="274.42" width="13.85" height="13.85" fill="#000000" fill-opacity="1.00"/>
<rect x="342.00" y="274.42" width="13.85" height="13.85" fill="#000000" fill-opacity="1.00"/>
<rect x="156.14" y="291.31" width="13.85" height="13.85" fill="#000000" fill-opacity="1.00"/>
<rect x="173.04" y="291.31" width="13.85" height="13.85" fill="#000000" fill-opacity="1.00"/>
<rect x="189.94" y="291.31" width="13.85" height="13.85" fill="#000000" fill-opacity="1.00"/>
<rect x="206.83" y="291.31" width="13.85" height="13.85" fill="#000000" fill-opacity="1.00"/>
<rect x="223.73" y="291.31" width="13.85" height="13.85" fill="#000000" fill-opacity="1.00"/>
<rect x="240.62" y="291.31" width="13.85" height="13.85" fill="#000000" fill-opacity="1.00"/>
<rect x="257.52" y="291.31" width="13.85" height="13.85" fill="#000000" fill-opacity="1.00"/>
<rect x="274.42" y="291.31" width="13.85" height="13.85" fill="#000000" fill-opacity="1.00"/>
<rect x="291.31" y="291.31" width="13.85" height="13.85" fill="#000000" fill-opacity="1.00"/>
<rect x="308.21" y="291.31" width="13.85" height="13.85" fill="#000000" fill-opacity="1.00"/>
<rect x="325.10" y="291.31" width="13.85" height="13.85" fill="#000000" fill-opacity="1.00"/>
<rect x="342.00" y="291.31" width="13.85" height="13.85" fill="#000000" fill-opacity="1.00"/>
<rect x="156.14" y="308.21" width="13.85" height="13.85" fill="#000000" fill-opacity="0.78"/>
<rect x="173.04" y="308.21" width="13.85" height="13.85" fill="#000000" fill-opacity="1.00"/>
<rect x="189.94" y="308.21" width="13.85" height="13.85" fill="#000000" fill-opacity="1.00"/>
<rect x="206.83" y="308.21" width="13.85" height="13.85" fill="#000000" fill-opacity="1.00"/>
<rect x="223.73" y="308.21" width="13.85" height="13.85" fill="#000000" fill-opacity="1.00"/>
<rect x="240.62" y="308.21" width="13.85" height="13.85" fill="#000000" fill-opacity="1.00"/>
<rect x="257.52" y="308.21" width="13.85" height="13.85" fill="#000000" fill-opacity="1.00"/>
<rect x="274.42" y="308.21" width="13.85" height="13.85" fill="#000000" fill-opacity="1.00"/>
<rect x="291.31" y="308.21" width="13.85" height="13.85" fill="#000000" fill-opacity="1.00"/>
<rect x="308.21" y="308.21" width="13.85" height="13.85" fill="#000000" fill-opacity="1.00"/>
<rect x="325.10" y="308.21" width="13.85" height="13.85" fill="#000000" fill-opacity="1.00"/>
<rect x="342.00" y="308.21" width="13.85" height="13.85" fill="#000000" fill-opacity="0.78"/>
<rect x="156.14" y="325.10" width="13.85" height="13.85" fill="#000000" fill-opacity="0.31"/>
<rect x="173.04" y="325.10" width="13.85" height="13.85" fill="#000000" fill-opacity="1.00"/>
<rect x="189.94" y="325.10" width="13.85" height="13.85" fill="#000000" fill-opacity="1.00"/>
<rect x="206.83" y="325.10" width="13.85" height="13.85" fill="#000000" fill-opacity="1.00"/>
<rect x="223.73" y="325.10" width="13.85" height="13.85" fill="#000000" fill-opacity="1.00"/>
<rect x="240.62" y="325.10" width="13.85" height="13.85" fill="#000000" fill-opacity="1.00"/>
<rect x="257.52" y="325.10" width="13.85" height="13.85" fill="#000000" fill-opacity="1.00"/>
<rect x="274.42" y="325.10" width="13.85" height="13.85" fill="#000000" fill-opacity="1.00"/>
<rect x="291.31" y="325.10" width="13.85" height="13.85" fill="#000000" fill-opacity="1.00"/>
<rect x="308.21" y="325.10" width="13.85" height="13.85" fill="#000000" fill-opacity="1.00"/>
<rect x="325.10" y="325.10" width="13.85" height="13.85" fill="#000000" fill-opacity="1.00"/>
<rect x="342.00" y="325.10" width="13.85" height="13.85" fill="#000000" fill-opacity="0.55"/>
<rect x="173.04" y="342.00" width="13.85" height="13.85" fill="#000000" fill-opacity="0.78"/>
<rect x="189.94" y="342.00" width="13.85" height="13.85" fill="#000000" fill-opacity="1.00"/>
<rect x="206.83" y="342.00" width="13.85" height="13.85" fill="#000000" fill-opacity="1.00"/>
<rect x="223.73" y="342.00" width="13.85" height="13.85" fill="#000000" fill-opacity="1.00"/>
<rect x="240.62" y="342.00" width="13.85" height="13.85" fill="#000000" fill-opacity="1.00"/>
<rect x="257.52" y="342.00" width="13.85" height="13.85" fill="#000000" fill-opacity="1.00"/>
<rect x="274.42" y="342.00" width="13.85" height="13.85" fill="#000000" fill-opacity="1.00"/>
<rect x="291.31" y="342.00" width="13.85" height="13.85" fill="#000000" fill-opacity="1.00"/>
<rect x="308.21" y="342.00" width="13.85" height="13.85" fill="#000000" fill-opacity="1.00"/>
<rect x="325.10" y="342.00" width="13.85" height="13.85" fill="#000000" fill-opacity="0.78"/>
<rect x="189.94" y="358.90" width="13.85" height="13.85" fill="#000000" fill-opacity="0.55"/>
<rect x="206.83" y="358.90" width="13.85" height="13.85" fill="#000000" fill-opacity="1.00"/>
<rect x="223.73" y="358.90" width="13.85" height="13.85" fill="#000000" fill-opacity="1.00"/>
<rect x="240.62" y="358.90" width="13.85" height="13.85" fill="#000000" fill-opacity="1.00"/>
<rect x="257.52" y="358.90" width="13.85" height="13.85" fill="#000000" fill-opacity="1.00"/>
<rect x="274.42" y="358.90" width="13.85" height="13.85" fill="#000000" fill-opacity="1.00"/>
<rect x="291.31" y="358.90" width="13.85" height="13.85" fill="#000000" fill-opacity="1.00"/>
<rect x="308.21" y="358.90" width="13.85" height="13.85" fill="#000000" fill-opacity="0.55"/>
<rect x="206.83" y="375.79" width="13.85" height="13.85" fill="#000000" fill-opacity="0.31"/>
<rect x="223.73" y="375.79" width="13.85" height="13.85" fill="#000000" fill-opacity="0.55"/>
<rect x="240.62" y="375.79" width="13.85" height="13.85" fill="#000000" fill-opacity="0.78"/>
<rect x="257.52" y="375.79" width="13.85" height="13.85" fill="#000000" fill-opacity="0.78"/>
<rect x="274.42" y="375.79" width="13.85" height="13.85" fill="#000000" fill-opacity="0.55"/>
<rect x="291.31" y="375.79" width="13.85" height="13.85" fill="#000000" fill-opacity="0.31"/>
  </g>
</svg>
